inDegrees=no
num_controls=7
num_derivatives=13
num_iterations=120
num_multipliers=7
num_parameters=0
num_slacks=7
num_states=26
objective=5.128594
objective_accelerations=0.389287
objective_balance=0.010663
objective_effort=0.354291
objective_height=4.304480
objective_ligament=0.069872
solver_duration=1009.009366
status=Solve_Succeeded
success=true
DataType=double
version=3
OpenSimVersion=4.4-2022-07-23-0e9fedc
endheader
time	/jointset/ground_pelvis/pelvis_tilt/value	/jointset/ground_pelvis/pelvis_tx/value	/jointset/ground_pelvis/pelvis_ty/value	/jointset/hip_r/hip_flexion_r/value	/jointset/hip_r/hip_adduction_r/value	/jointset/hip_r/hip_rotation_r/value	/jointset/back/lumbar_extension/value	/jointset/patellofemoral_r/patellar_flexion_r/value	/jointset/knee_r/knee_flexion_r/value	/jointset/knee_r/knee_adduction_r/value	/jointset/knee_r/knee_rotation_r/value	/jointset/ankle_r/ankle_angle_r/value	/jointset/subtalar_r/subtalar_angle_r/value	/jointset/ground_pelvis/pelvis_tilt/speed	/jointset/ground_pelvis/pelvis_tx/speed	/jointset/ground_pelvis/pelvis_ty/speed	/jointset/hip_r/hip_flexion_r/speed	/jointset/hip_r/hip_adduction_r/speed	/jointset/hip_r/hip_rotation_r/speed	/jointset/back/lumbar_extension/speed	/jointset/patellofemoral_r/patellar_flexion_r/speed	/jointset/knee_r/knee_flexion_r/speed	/jointset/knee_r/knee_adduction_r/speed	/jointset/knee_r/knee_rotation_r/speed	/jointset/ankle_r/ankle_angle_r/speed	/jointset/subtalar_r/subtalar_angle_r/speed	/forceset/tau_hip_flexion_r	/forceset/tau_hip_adduction_r	/forceset/tau_hip_rotation_r	/forceset/tau_knee_flexion_r	/forceset/tau_ankle_angle_r	/forceset/tau_subtalar_angle_r	/forceset/tau_lumbar_extension	lambda_cid13_p0	lambda_cid14_p0	lambda_cid14_p1	lambda_cid14_p2	lambda_cid14_p3	lambda_cid14_p4	lambda_cid14_p5	/jointset/ground_pelvis/pelvis_tilt/accel	/jointset/ground_pelvis/pelvis_tx/accel	/jointset/ground_pelvis/pelvis_ty/accel	/jointset/hip_r/hip_flexion_r/accel	/jointset/hip_r/hip_adduction_r/accel	/jointset/hip_r/hip_rotation_r/accel	/jointset/back/lumbar_extension/accel	/jointset/patellofemoral_r/patellar_flexion_r/accel	/jointset/knee_r/knee_flexion_r/accel	/jointset/knee_r/knee_adduction_r/accel	/jointset/knee_r/knee_rotation_r/accel	/jointset/ankle_r/ankle_angle_r/accel	/jointset/subtalar_r/subtalar_angle_r/accel	gamma_cid13_p0	gamma_cid14_p0	gamma_cid14_p1	gamma_cid14_p2	gamma_cid14_p3	gamma_cid14_p4	gamma_cid14_p5
1	-0.1113856308003589	0.02311390742128562	0.7268577763540088	1.07063047671679	-0.2276127348051701	-0.1461943951190061	-0.7853511828039197	1.276805093866639	1.276805093868679	-0.1745313125378306	0.1733664991206288	0.4362605635116967	0.1974262237086076	0.06814674440298447	0.007061293524508273	0.01338615267964726	-0.09925671911755858	-0.00125432029304886	-0.001968028017985268	0.007314088568790033	-0.01759358932762864	-0.01759358932762842	0.005083071968649229	-0.0002257746845907607	0.01321762714687718	0.004964161312598151	-0.2543360502351334	0.03543062139243714	0.01950204941552638	-0.4137246618014815	-0.04368510681422822	0.00804164193469431	0.311319534380529	-0.04540314400480724	-63.76485119305465	-10.42027097917553	5.222078217057005	6.22064990397096	-742.2705519547974	69.24399334984817	0.8900259988918382	0.1904764505613497	1.296816230945526	-4.00584415352792	0.2307240369155835	-0.1313835738860961	0.5180375005949137	-4.149066800055136	-4.149066800055202	0.9652915705723601	0.02076297658405814	-1.219421505008342	-0.2328416680195906	9.241455180769104e-10	-1.88940672037909e-10	1.442067447680369e-08	3.72647480753536e-09	1.977434552827749e-09	-6.117513551841038e-09	2.07858948167164e-08
1.01	-0.1106606690757916	0.02319422776811866	0.7270563049660426	1.069438692723123	-0.2276140835030462	-0.1462186115160725	-0.7852497750313203	1.276422339518364	1.276422339520282	-0.1744298699096351	0.1733651720899365	0.4363319760138611	0.1974636367192294	0.0768060100930482	0.009023508002845945	0.02631521587378604	-0.1390811721105554	0.0009750970201722897	-0.002862105564280945	0.01313457681053472	-0.05894846434923396	-0.05894846434923238	0.01522967082510212	-3.466336247619548e-05	0.001090803898258857	0.002514235713154072	-0.2548418707932716	0.03546547471362596	0.01954021165465297	-0.4136427609719501	-0.04387419797586568	0.00803641216408283	0.3121102751583372	-0.04571438559462268	-63.84796028471755	-10.43410922944016	5.220875217454357	6.025116699733423	-742.7454197875837	69.23837785032639	0.8479396561601567	0.2022039132865483	1.290296354281783	-3.967908559587201	0.2176321369885964	-0.06644587267813955	0.6391211122612468	-4.127376066365956	-4.127376066365765	1.042977963798978	0.01903799905696521	-1.205423685504706	-0.2516908637480787	3.027149298889e-09	3.392670963759911e-09	2.898430396692076e-08	2.789184979767309e-08	7.264761468909372e-10	-9.621833516135283e-09	4.448219920872714e-08
1.02	-0.1098503021339122	0.02329479225309715	0.7273839932081388	1.067849231662056	-0.2275934217161184	-0.146251373894056	-0.7850851490509871	1.275626300777246	1.275626300778943	-0.1742262345085234	0.1733659067303312	0.436282898094261	0.1974764259022881	0.08522778786698655	0.01111012115359968	0.03921807869315763	-0.1787921325996553	0.003147776671883175	-0.00367722421759156	0.01995773010413061	-0.1002504678969692	-0.1002504678969656	0.02552162650622935	0.0001865595208418753	-0.01088045737900965	3.939580011862995e-05	-0.2553476913513039	0.03550032803502575	0.01957837389293035	-0.4135608601425427	-0.04406328913745753	0.008031182393915698	0.3129010159362459	-0.04646491584142377	-63.9393049415581	-10.44344799420931	5.212167867991433	5.825386796262432	-743.3668426093324	69.27713033336606	0.842528415666787	0.2153561850445371	1.291576155992088	-3.983145652748533	0.2193765046136301	-0.1155917952893297	0.7185705109645115	-4.138492505281169	-4.138492505281107	0.9943629355068374	0.02678528882463445	-1.188309110738394	-0.2378245307376775	5.680908758727265e-09	8.505411931879327e-09	4.419083007840289e-08	5.473676628603e-08	-2.947204514510648e-09	-1.322762099918006e-08	7.162170104853397e-08
1.03	-0.1089568726150352	0.02341667442387855	0.7278405484490338	1.065863437556568	-0.2275512652624352	-0.1462919737124163	-0.7848477278114161	1.274417371325103	1.274417371326745	-0.1739190541183548	0.1733689947610313	0.4361145047831452	0.1974642377756252	0.093420247789877	0.01327007858495644	0.0520853639620192	-0.2183252150860114	0.005279095701341026	-0.004433825188364679	0.02765079145420508	-0.1415394231604198	-0.1415394231604304	0.03593223294203617	0.0004336578834562258	-0.02281034858237875	-0.002491879855734039	-0.2556485798265773	0.03563735094671823	0.01957315259453022	-0.4127292657536258	-0.04514883555580235	0.008069609359826565	0.3133492129858379	-0.04785288853731849	-64.29784444798099	-10.4575687511647	5.177904074076613	6.088204403937345	-743.5450093493284	69.21267143216276	0.8019275231145679	0.2168790079909003	1.283160495143059	-3.932165769451677	0.2093585500010583	-0.05434948963587038	0.8133149920560695	-4.124698815599935	-4.12469881560224	1.067078254595132	0.02408426283077324	-1.197150663823761	-0.2629888307989062	8.340288174473964e-09	1.363377666869591e-08	5.940391635949078e-08	8.160902503457283e-08	-6.645606831580256e-09	-1.683444386506924e-08	9.879633755617548e-08
1.04	-0.1079826539484289	0.02356026886613396	0.7284255476991739	1.063483557381633	-0.2274879258289062	-0.1463398705887125	-0.7845296477493093	1.272795431964584	1.272795431966078	-0.1735072339124129	0.1733746362060129	0.4358264482521472	0.1974262949428453	0.1013856174133355	0.01545257544840227	0.06490688054316775	-0.2576093464873235	0.007384372646304645	-0.00513663582565616	0.03608949460534499	-0.182852449572806	-0.182852449572831	0.04644958965693088	0.0006972423600384147	-0.03481310133325116	-0.00511154542311999	-0.2559494683018601	0.03577437385868382	0.01956793129534591	-0.4118976713648363	-0.04623438197407018	0.00810803632631431	0.3137974100354289	-0.05014526362037464	-64.66459580485269	-10.46708829864004	5.136008260237189	6.345399213829525	-743.8708808184966	69.19254893266353	0.7971103557803915	0.21986407146235	1.282422418449503	-3.933355435739772	0.2141680877148531	-0.1048337285929644	0.8676988711771734	-4.143306735068373	-4.143306735068333	1.015712991324366	0.0300825116180692	-1.202881420239066	-0.2555025130442407	1.043869868764515e-08	1.710087125101065e-08	7.166356029982128e-08	1.06261843081455e-07	-7.866922646148923e-09	-1.968165356110345e-08	1.19625403300945e-07
1.05	-0.1069298599446395	0.02372583640402122	0.7291384794623922	1.06071208354365	-0.2274037020481161	-0.1463945711109706	-0.7841234954577101	1.270760363210871	1.270760363210834	-0.1729897397141386	0.1733830218380194	0.4354180596201426	0.1973616826907495	0.1091386697644594	0.0176682489656195	0.07766619255585139	-0.2966409848660984	0.009452215883419662	-0.005792208495661248	0.04526393215462018	-0.2241521697890772	-0.2241521697890734	0.05706993858453655	0.0009824898823575	-0.04687097256811164	-0.007828918712552466	-0.2559766209568745	0.03582826144443072	0.01959921790243326	-0.4108920013105956	-0.04705150118458244	0.008111622338111779	0.3140240433522658	-0.05371379787821748	-64.9213277604821	-10.47559790827014	5.097518194548943	6.512767613085727	-743.829250465251	69.12642657658212	0.7592301353584731	0.2235147033934548	1.270689131573806	-3.881398364939822	0.2018863456779825	-0.04421749332345128	0.9607614616148501	-4.121937483084356	-4.121937483080186	1.088300922853446	0.02816867314406827	-1.208191921214572	-0.2825280240539832	1.251957892261085e-08	2.051605114099722e-08	8.383090916700315e-08	1.308453036064102e-07	-9.010829507514448e-09	-2.250512534557971e-08	1.402561699593749e-07
1.06	-0.1058005699252232	0.02391377981938771	0.7299786050535113	1.057551627256735	-0.2272990410541832	-0.1464554870512521	-0.7836219097376294	1.268312570691364	1.268312570689646	-0.172365421010701	0.1733943445054469	0.4348889018865209	0.1972693620483263	0.1166848205387953	0.01992775094424935	0.09034564612428284	-0.3354058362846505	0.01147181527920117	-0.006379719450362183	0.05517618029636603	-0.2653972027324834	-0.2653972027324516	0.06781449068711616	0.001284649428821463	-0.05896692164717482	-0.01065322348837631	-0.2560037736115742	0.03588214903045228	0.01963050450834643	-0.4098863312565048	-0.04786862039505162	0.008115208350479259	0.3142506766693923	-0.05903207584483514	-65.18625196733986	-10.4794019681932	5.051264219143392	6.674387929779396	-743.9358598124895	69.10447441877841	0.7557300404227837	0.2286297637447922	1.266450729599084	-3.879998043695221	0.2045193194482541	-0.09122138553199755	1.015260989670975	-4.132369280495482	-4.132369280495574	1.040553626319185	0.03346491644686507	-1.210496989079761	-0.2768888103224537	1.468016692162919e-08	2.355719405715906e-08	9.308387516386255e-08	1.537977503704061e-07	-1.000387707073358e-08	-2.533007349550846e-08	1.570526926778334e-07
1.07	-0.1045968134161948	0.02412454030301504	0.7309450816109698	1.054004888724972	-0.227174418497662	-0.146522106353535	-0.7830176484605013	1.265452639858827	1.265452639858136	-0.1716332353231452	0.1734087657408929	0.4342385835873262	0.1971482839783967	0.1240336768667459	0.02223195927968704	0.1029316581062495	-0.3738916173829718	0.01344516061681012	-0.006939514627950246	0.06578833088865382	-0.3065744682386228	-0.3065744682385924	0.07863306223025728	0.001598148810831822	-0.07110431488446607	-0.01357879826907499	-0.2557158246050085	0.03587481836061936	0.01969051840102455	-0.4086855704298166	-0.04851359974926427	0.0080880869619619	0.3141918111370409	-0.06665998469579179	-65.37333567541863	-10.48428811284375	5.006753935175836	6.815136232985314	-743.6642767889686	69.03335751246053	0.7195485799339885	0.2324561811939674	1.251969672495887	-3.825324757908228	0.1926376249764779	-0.03764718346694645	1.101030456922694	-4.108234255222343	-4.108234255222553	1.104072876621379	0.03011740158474587	-1.216496542635777	-0.302815874291054	1.684499469533118e-08	2.657844138960682e-08	1.021818207952792e-07	1.76663441083287e-07	-1.098890020320024e-08	-2.815510017551447e-08	1.736452662505487e-07
1.08	-0.1033205513136974	0.0243585708325458	0.7320368769362425	1.050074801059307	-0.2270302833909619	-0.146594181327475	-0.7823038980048423	1.262181370557323	1.262181370557553	-0.1707925511284801	0.1734262869606686	0.4334666641454247	0.1969974653481897	0.1311859392328386	0.02458176012493664	0.115409399688121	-0.4120756630816194	0.01537432531679016	-0.007470853789275473	0.07707401599753004	-0.3476648965267495	-0.3476648965267209	0.08951419210579344	0.00190464629304705	-0.08328715018503945	-0.01660133554362444	-0.2554278755979721	0.035867487690877	0.0197505322930315	-0.4074848096031816	-0.04915857910349949	0.008060965573619686	0.3141329456051201	-0.07724933815013514	-65.56856120132204	-10.48439458726066	4.954393362858788	6.94980436428083	-743.5410358699133	69.00585244431046	0.7164112480511799	0.2377482657070631	1.24479664958007	-3.819650963760436	0.1956831919225862	-0.08553018227923831	1.149967892988369	-4.115001836893071	-4.115001836893249	1.053065292798257	0.03206453648760885	-1.219585401736388	-0.2962813090925357	1.834500127488693e-08	2.854974025226665e-08	1.072418493425318e-07	1.944214026689548e-07	-1.133708187150692e-08	-3.00557593537931e-08	1.832590578099409e-07
1.09	-0.1019737322371133	0.02461633979663125	0.7332528519609809	1.045764448490132	-0.2268670987066048	-0.1466715719941671	-0.7814740047931457	1.258499717649812	1.258499717650023	-0.1698428892232038	0.1734468724250258	0.4325727058133035	0.196815920254996	0.1381442838128904	0.02698087909225133	0.1277616037913923	-0.4499349271707109	0.01725277951426755	-0.008003692290582686	0.08901189502247397	-0.3886404925923426	-0.388640492592304	0.100426858363325	0.002210361096717039	-0.09551061841066014	-0.01972650998394987	-0.2548197923730106	0.03578305548550079	0.01983632171278405	-0.4060894383966945	-0.0495929656624287	0.008004251955246707	0.3137862098524937	-0.09153496056491305	-65.67119191078987	-10.48262672782908	4.903432228517214	7.040498203783437	-743.0176781415082	68.93111982185087	0.6805139209341594	0.2423183391056865	1.226825660132852	-3.760069276870327	0.1824827129811258	-0.03660120363347517	1.231788208610754	-4.085063619597268	-4.085063619595689	1.111669049826256	0.02956193234422081	-1.22464218808257	-0.3234167781080507	1.979442363314896e-08	3.044115173135566e-08	1.119946450681633e-07	2.117907326905956e-07	-1.163680821101883e-08	-3.188608622215768e-08	1.923418550857107e-07
